# xmcd
#
# Track frame offsets:
#	150
#	17599
#	35879
#	67753
#	81956
#	102482
#	118603
#	136041
#	154347
#	186215
#	200419
#	220938
#
# Disc length: 3159 seconds
#
# Revision: 1
# Processed by: cddbd v1.5.1PL2 Copyright (c) Steve Scherf et al.
# Submitted via: audiograbber 1.83.01
#
DISCID=a50c550c
DTITLE=Chartbuster - cb20176
DYEAR=1900
DGENRE=
TTITLE0=Hayes, Wade - Up North Down South Back East Out West (Vocal)
TTITLE1=Brandt, Paul - That Hurts (Vocal)
TTITLE2=Jackson, Alan - The Blues Man (Vocal)
TTITLE3=Diffie, Joe - It's Always Something (Vocal)
TTITLE4=Urban, Keith - Your Everything (Vocal)
TTITLE5=Wills, Mark - Rich Man (Vocal)
TTITLE6=Hayes, Wade - Up North Down South Back East Out West
TTITLE7=Brandt, Paul - That Hurts
TTITLE8=Jackson, Alan - The Blues Man
TTITLE9=Diffie, Joe - It's Always Something
TTITLE10=Urban, Keith - Your Everything
TTITLE11=Wills, Mark - Rich Man
EXTD=
EXTT0=
EXTT1=
EXTT2=
EXTT3=
EXTT4=
EXTT5=
EXTT6=
EXTT7=
EXTT8=
EXTT9=
EXTT10=
EXTT11=
PLAYORDER=
